<svg width="20" height="20" viewBox="0 0 20 20" fill="none" xmlns="http://www.w3.org/2000/svg">
<path d="M11.0833 14.3958C10.9166 14.2291 10.8366 14.0277 10.8433 13.7916C10.8505 13.5555 10.9374 13.3541 11.1041 13.1875L13.4583 10.8333H4.16659C3.93047 10.8333 3.73242 10.7533 3.57242 10.5933C3.41297 10.4338 3.33325 10.2361 3.33325 9.99996C3.33325 9.76385 3.41297 9.56579 3.57242 9.40579C3.73242 9.24635 3.93047 9.16663 4.16659 9.16663H13.4583L11.0833 6.79163C10.9166 6.62496 10.8333 6.4269 10.8333 6.19746C10.8333 5.96857 10.9166 5.77079 11.0833 5.60413C11.2499 5.43746 11.448 5.35413 11.6774 5.35413C11.9063 5.35413 12.1041 5.43746 12.2708 5.60413L16.0833 9.41663C16.1666 9.49996 16.2258 9.59024 16.2608 9.68746C16.2952 9.78468 16.3124 9.88885 16.3124 9.99996C16.3124 10.1111 16.2952 10.2152 16.2608 10.3125C16.2258 10.4097 16.1666 10.5 16.0833 10.5833L12.2499 14.4166C12.0971 14.5694 11.9063 14.6458 11.6774 14.6458C11.448 14.6458 11.2499 14.5625 11.0833 14.3958Z" fill="#0D2234"/>
</svg>
