<svg width="114" height="114" viewBox="0 0 114 114" fill="none" xmlns="http://www.w3.org/2000/svg">
<circle cx="57" cy="57" r="57" fill="#F6F7FA"/>
<circle cx="57" cy="57" r="51.375" fill="#F6F7FA" stroke="black" stroke-width="0.75"/>
<path d="M64.9766 55.8282L59.9844 54.0157L58.1719 49.0235C58.0831 48.7843 57.9232 48.578 57.7137 48.4323C57.5042 48.2866 57.2552 48.2085 57 48.2085C56.7448 48.2085 56.4958 48.2866 56.2863 48.4323C56.0768 48.578 55.9169 48.7843 55.8281 49.0235L54.0156 54.0157L49.0234 55.8282C48.7842 55.917 48.5779 56.0769 48.4322 56.2864C48.2865 56.4959 48.2084 56.7449 48.2084 57.0001C48.2084 57.2552 48.2865 57.5043 48.4322 57.7138C48.5779 57.9233 48.7842 58.0832 49.0234 58.172L54.0156 59.9845L55.8281 64.9766C55.9169 65.2159 56.0768 65.4222 56.2863 65.5679C56.4958 65.7136 56.7448 65.7917 57 65.7917C57.2552 65.7917 57.5042 65.7136 57.7137 65.5679C57.9232 65.4222 58.0831 65.2159 58.1719 64.9766L59.9844 59.9845L64.9766 58.172C65.2158 58.0832 65.4221 57.9233 65.5678 57.7138C65.7135 57.5043 65.7916 57.2552 65.7916 57.0001C65.7916 56.7449 65.7135 56.4959 65.5678 56.2864C65.4221 56.0769 65.2158 55.917 64.9766 55.8282ZM59.5625 58.8126C59.3893 58.8735 59.232 58.9725 59.1022 59.1023C58.9724 59.2321 58.8734 59.3894 58.8125 59.5626L57 64.547L55.1875 59.5626C55.1266 59.3894 55.0276 59.2321 54.8977 59.1023C54.7679 58.9725 54.6107 58.8735 54.4375 58.8126L49.4531 57.0001L54.4375 55.1876C54.6107 55.1267 54.7679 55.0276 54.8977 54.8978C55.0276 54.768 55.1266 54.6107 55.1875 54.4376L57 49.4532L58.8125 54.4376C58.8734 54.6107 58.9724 54.768 59.1022 54.8978C59.232 55.0276 59.3893 55.1267 59.5625 55.1876L64.5469 57.0001L59.5625 58.8126Z" fill="#212121"/>
<path d="M48.5644 91.6647L43.068 89.8252L42.5659 91.3254L46.3629 92.5962L44.1368 99.2475L45.8362 99.8163L48.5644 91.6647Z" fill="#212121"/>
<path d="M33.2445 94.174L38.3889 87.2873L33.7119 83.7934L32.7651 85.0608L36.0289 87.499L34.8057 89.1366L31.8446 86.9246L30.9314 88.1472L33.8924 90.3591L32.7697 91.8621L29.5058 89.4239L28.5674 90.6801L33.2445 94.174Z" fill="#212121"/>
<path d="M24.5259 84.3091L22.9724 82.0303L28.7795 78.0717L27.7623 76.5794L21.9552 80.538L20.3938 78.2475L19.0982 79.1307L23.2303 85.1923L24.5259 84.3091Z" fill="#212121"/>
<path d="M19.6455 71.7125L19.2885 70.6658L17.9401 70.3121C17.501 70.1956 16.996 70.146 16.5984 70.2816C15.8697 70.5302 15.6349 71.1428 15.8292 71.7125C16.0281 72.2956 16.6057 72.6015 17.1888 72.4026C17.7188 72.2218 17.9413 71.7465 17.8671 71.2689L19.6455 71.7125Z" fill="#212121"/>
<path d="M20.1631 63.6989C21.776 63.2888 22.6287 61.8664 22.492 59.9533C22.3622 58.1379 21.2589 56.8413 19.5972 56.9601C18.2985 57.0529 17.5634 57.9616 17.3421 59.381L17.0908 60.971C16.9831 61.6243 16.7128 61.9665 16.224 62.0014C15.6096 62.0453 15.1797 61.5287 15.1218 60.7187C15.0579 59.825 15.4698 59.3043 16.0284 59.0679L15.9016 57.2944C14.4693 57.6775 13.5168 58.8825 13.6565 60.8375C13.7853 62.6389 14.9663 63.8458 16.5164 63.735C17.9268 63.6342 18.5152 62.6377 18.7067 61.3889L18.946 59.8278C19.0607 59.0757 19.318 58.7485 19.8347 58.7116C20.5189 58.6627 20.9508 59.2073 21.0127 60.0731C21.0726 60.9109 20.7684 61.5643 20.0313 61.8556L20.1631 63.6989Z" fill="#212121"/>
<path d="M24.7041 37.981C25.4828 38.6075 25.7495 39.5199 25.2387 40.5008C24.5727 41.7798 23.1098 42.0125 21.6322 41.243C20.1669 40.48 19.5124 39.1605 20.1655 37.9063C20.6246 37.0247 21.3173 36.7856 22.1798 36.8875L23.0139 35.2857C21.3379 34.7759 19.7069 35.3314 18.7499 37.1692C17.67 39.2428 18.4571 41.6416 20.7916 42.8572C23.126 44.0729 25.5361 43.3549 26.6418 41.2315C27.6441 39.3069 27.0273 37.2178 24.9163 36.1185L24.2458 35.7693L22.681 38.7743L23.9475 39.4339L24.7041 37.981Z" fill="#212121"/>
<path d="M33.9046 25.9839C32.1533 24.0947 29.6554 23.8714 27.8998 25.4989C26.1441 27.1264 26.1882 29.6246 27.9395 31.5137C29.6812 33.3926 32.1784 33.6357 33.934 32.0082C35.6897 30.3806 35.6464 27.8627 33.9046 25.9839ZM32.5802 27.2117C33.7223 28.4437 33.8552 29.905 32.849 30.8377C31.8531 31.761 30.4163 31.5084 29.2742 30.2764C28.132 29.0443 27.9889 27.5926 28.9848 26.6693C29.991 25.7366 31.438 25.9796 32.5802 27.2117Z" fill="#212121"/>
<path d="M46.7973 21.4848L50.0803 20.7062L49.7314 19.235L46.4484 20.0136L46.7973 21.4848Z" fill="#EE2737"/>
<path d="M63.8155 23.5514L69.4021 25.0952L69.8235 23.5703L65.9641 22.5039L67.8323 15.7432L66.105 15.2659L63.8155 23.5514Z" fill="#212121"/>
<path d="M78.9797 20.2289L74.2098 27.3801L79.0666 30.6196L79.9444 29.3035L76.5552 27.0428L77.6894 25.3424L80.7641 27.3933L81.6109 26.1238L78.5361 24.0729L79.5771 22.5122L82.9664 24.7728L83.8364 23.4684L78.9797 20.2289Z" fill="#212121"/>
<path d="M88.2121 29.614L89.8849 31.8068L84.2971 36.0695L85.3925 37.5054L90.9803 33.2427L92.6615 35.4466L93.9082 34.4956L89.4588 28.663L88.2121 29.614Z" fill="#212121"/>
<path d="M93.7573 41.9327L94.1696 42.9589L95.5349 43.2401C95.9796 43.333 96.4866 43.3556 96.8763 43.1991C97.5908 42.912 97.7926 42.2877 97.5682 41.7291C97.3385 41.1575 96.7453 40.8829 96.1738 41.1126C95.6541 41.3214 95.4573 41.8078 95.5568 42.2808L93.7573 41.9327Z" fill="#212121"/>
<path d="M93.6679 49.9621C92.0792 50.4576 91.3035 51.9234 91.5421 53.8265C91.7685 55.6324 92.9393 56.8684 94.5924 56.6611C95.8843 56.4991 96.5698 55.5525 96.7152 54.1233L96.8813 52.5222C96.954 51.8641 97.2057 51.508 97.6919 51.4471C98.3031 51.3704 98.7599 51.8634 98.8609 52.6691C98.9724 53.5582 98.5888 54.1001 98.0437 54.366L98.2649 56.1301C99.6747 55.6712 100.562 54.4171 100.318 52.4724C100.093 50.6804 98.8494 49.5382 97.3075 49.7315C95.9044 49.9074 95.37 50.9339 95.2454 52.1912L95.0897 53.7627C95.0153 54.5199 94.7758 54.8603 94.2618 54.9247C93.5811 55.0101 93.1208 54.4893 93.0128 53.628C92.9083 52.7946 93.1772 52.1259 93.8978 51.7957L93.6679 49.9621Z" fill="#212121"/>
<path d="M90.5048 75.8861C89.6939 75.302 89.3788 74.4052 89.8366 73.3984C90.4335 72.0857 91.8818 71.7754 93.3984 72.4649C94.9022 73.1487 95.6262 74.4314 95.041 75.7186C94.6295 76.6235 93.9505 76.8992 93.0839 76.8434L92.3363 78.4875C94.0372 78.9071 95.6362 78.2654 96.4938 76.3792C97.4616 74.2509 96.5477 71.8976 94.1517 70.8082C91.7558 69.7187 89.3874 70.5643 88.3965 72.7435C87.4983 74.7189 88.2257 76.7721 90.3922 77.7573L91.0804 78.0702L92.4828 74.986L91.1828 74.395L90.5048 75.8861Z" fill="#212121"/>
<path d="M81.9574 88.3568C83.8069 90.1498 86.3132 90.2397 87.9795 88.5208C89.6459 86.8019 89.4686 84.3097 87.6191 82.5167C85.7796 80.7334 83.273 80.6237 81.6067 82.3426C79.9403 84.0615 80.1179 86.5735 81.9574 88.3568ZM83.2145 87.0601C82.0082 85.8907 81.7976 84.4386 82.7526 83.4535C83.6978 82.4785 85.1461 82.654 86.3523 83.8234C87.5585 84.9928 87.7789 86.4349 86.8336 87.4099C85.8786 88.395 84.4207 88.2295 83.2145 87.0601Z" fill="#212121"/>
<path d="M69.3229 93.5369L66.0861 94.4894L66.513 95.9399L69.7498 94.9874L69.3229 93.5369Z" fill="#EE2737"/>
</svg>
