<svg width="96" height="92" viewBox="0 0 96 92" fill="none" xmlns="http://www.w3.org/2000/svg">
<path d="M14.5638 37.6886L15.393 36.0536L8.62299 32.6202L8.6367 32.5932L17.7573 31.3916L18.6002 29.7295L9.006 24.8638L8.18363 26.4854L15.0753 29.9804L15.0616 30.0075L5.79192 31.2014L4.96955 32.823L14.5638 37.6886Z" fill="white"/>
<path d="M22.3366 25.7088L27.7134 21.086L26.6466 19.8452L22.6599 23.2728L20.7831 21.09L23.8047 18.4921L22.7379 17.2513L19.7163 19.8492L17.7803 17.5973L21.5256 14.3772L20.4588 13.1364L15.3233 17.5518L22.3366 25.7088Z" fill="white"/>
<path d="M32.3748 18.3827L34.3891 17.7177L35.6338 13.1265L35.6626 13.117L39.4104 16.0602L41.4535 15.3858L36.3672 11.3846L37.9951 5.19892L36.0095 5.85435L34.808 10.4314L34.7936 10.4361L31.1033 7.47391L29.0746 8.14358L34.0651 12.1445L32.3748 18.3827Z" fill="white"/>
<path d="M49.3023 15.2499L51.1287 15.4091L51.9209 6.32244L55.0001 6.59088L55.1422 4.96071L47.2027 4.26857L47.0605 5.89874L50.0945 6.16322L49.3023 15.2499Z" fill="white"/>
<path d="M71.268 24.5497C73.276 26.3274 75.6549 26.0861 77.5028 23.9987L81.701 19.2567L80.3283 18.0415L76.2206 22.6813C74.9953 24.0654 73.4907 24.2106 72.413 23.2565C71.2558 22.232 71.3987 20.6992 72.5336 19.4173L76.6413 14.7774L75.28 13.5722L71.0819 18.3142C69.1636 20.481 69.3621 22.8624 71.268 24.5497Z" fill="white"/>
<path d="M77.8911 32.2731L78.6966 33.9201L82.1401 32.236L82.9522 33.8965C83.9707 35.979 85.6565 36.9086 87.7526 35.8835C89.5492 35.0048 90.3972 33.3589 89.2656 31.045L87.5549 27.547L77.8911 32.2731ZM83.6237 31.5104L86.8903 29.9129L87.6824 31.5325C88.2616 32.7167 87.9686 33.6696 86.9478 34.1688C85.995 34.6348 85.0149 34.3551 84.3559 33.0076L83.6237 31.5104Z" fill="white"/>
<path d="M80.6164 53.9365L79.7872 55.5716L86.5572 59.0049L86.5435 59.032L77.4229 60.2335L76.58 61.8956L86.1742 66.7613L86.9966 65.1397L80.1049 61.6447L80.1186 61.6177L89.3883 60.4237L90.2106 58.8021L80.6164 53.9365Z" fill="white"/>
<path d="M72.8436 65.9163L67.4668 70.5391L68.5336 71.7799L72.5203 68.3523L74.3971 70.5352L71.3755 73.133L72.4423 74.3738L75.4639 71.776L77.3999 74.0278L73.6546 77.248L74.7214 78.4888L79.8569 74.0733L72.8436 65.9163Z" fill="white"/>
<path d="M62.8054 73.2425L60.7911 73.9074L59.5464 78.4986L59.5176 78.5081L55.7697 75.5649L53.7267 76.2394L58.813 80.2405L57.1851 86.4262L59.1706 85.7708L60.3722 81.1938L60.3866 81.189L64.0769 84.1512L66.1056 83.4815L61.1151 79.4806L62.8054 73.2425Z" fill="white"/>
<path d="M45.8779 76.3752L44.0515 76.216L43.2593 85.3027L40.1801 85.0342L40.038 86.6644L47.9775 87.3566L48.1196 85.7264L45.0857 85.4619L45.8779 76.3752Z" fill="white"/>
<path d="M23.9122 67.0754C21.9042 65.2977 19.5253 65.539 17.6773 67.6264L13.4792 72.3684L14.8519 73.5837L18.9596 68.9438C20.1849 67.5598 21.6895 67.4146 22.7672 68.3687C23.9244 69.3931 23.7815 70.9259 22.6466 72.2079L18.5389 76.8478L19.9002 78.053L24.0983 73.311C26.0166 71.1442 25.818 68.7627 23.9122 67.0754Z" fill="white"/>
<path d="M17.2891 59.352L16.4836 57.7051L13.0401 59.3892L12.228 57.7286C11.2095 55.6462 9.52367 54.7165 7.42759 55.7416C5.63095 56.6203 4.783 58.2662 5.91461 60.5801L7.62533 64.0781L17.2891 59.352ZM11.5565 60.1147L8.28987 61.7123L7.49775 60.0926C6.91863 58.9084 7.21161 57.9556 8.23243 57.4563C9.18519 56.9904 10.1653 57.27 10.8243 58.6175L11.5565 60.1147Z" fill="white"/>
<circle cx="89.3337" cy="44.372" r="2.16449" fill="#EE2737"/>
<circle cx="4.91859" cy="44.372" r="2.16449" fill="#EE2737"/>
</svg>
