<svg width="17" height="17" viewBox="0 0 17 17" fill="none" xmlns="http://www.w3.org/2000/svg">
<path d="M8.89031 8.48406C9.25718 8.48406 9.57135 8.35332 9.83283 8.09184C10.0939 7.83081 10.2244 7.51686 10.2244 7.14999C10.2244 6.78312 10.0939 6.46895 9.83283 6.20747C9.57135 5.94644 9.25718 5.81592 8.89031 5.81592C8.52344 5.81592 8.20949 5.94644 7.94846 6.20747C7.68698 6.46895 7.55624 6.78312 7.55624 7.14999C7.55624 7.51686 7.68698 7.83081 7.94846 8.09184C8.20949 8.35332 8.52344 8.48406 8.89031 8.48406ZM8.89031 14.9043C8.80137 14.9043 8.71243 14.8876 8.6235 14.8542C8.53456 14.8209 8.45674 14.7764 8.39003 14.7208C6.76692 13.2867 5.55514 11.9555 4.7547 10.7273C3.95426 9.49862 3.55404 8.35065 3.55404 7.2834C3.55404 5.61581 4.09055 4.2873 5.16359 3.29787C6.23618 2.30844 7.47842 1.81372 8.89031 1.81372C10.3022 1.81372 11.5444 2.30844 12.617 3.29787C13.6901 4.2873 14.2266 5.61581 14.2266 7.2834C14.2266 8.35065 13.8264 9.49862 13.0259 10.7273C12.2255 11.9555 11.0137 13.2867 9.39058 14.7208C9.32388 14.7764 9.24606 14.8209 9.15712 14.8542C9.06818 14.8876 8.97925 14.9043 8.89031 14.9043Z" fill="#EE2737"/>
</svg>
