<svg width="20" height="20" viewBox="0 0 20 20" fill="none" xmlns="http://www.w3.org/2000/svg">
<path d="M16.4286 11.0714H11.0714V16.4286C11.0714 17.0179 10.5893 17.5 10 17.5C9.41071 17.5 8.92857 17.0179 8.92857 16.4286V11.0714H3.57143C2.98214 11.0714 2.5 10.5893 2.5 10C2.5 9.41071 2.98214 8.92857 3.57143 8.92857H8.92857V3.57143C8.92857 2.98214 9.41071 2.5 10 2.5C10.5893 2.5 11.0714 2.98214 11.0714 3.57143V8.92857H16.4286C17.0179 8.92857 17.5 9.41071 17.5 10C17.5 10.5893 17.0179 11.0714 16.4286 11.0714Z" fill="#0D2234"/>
</svg>
