<svg width="200" height="36" viewBox="0 0 200 36" fill="none" xmlns="http://www.w3.org/2000/svg">
<path d="M46.8946 8.0874H50.3893C50.6235 8.0874 50.8253 8.23053 50.8981 8.45308L55.8379 22.9364L60.7453 8.45308C60.8181 8.23844 61.028 8.0874 61.2541 8.0874H64.7407C65.12 8.0874 65.3785 8.45307 65.2495 8.80283L58.2754 27.3402C58.195 27.5468 57.9932 27.6899 57.7671 27.6899H53.8602C53.6341 27.6899 53.4322 27.5548 53.3518 27.3402L46.3777 8.80283C46.2568 8.45307 46.5153 8.0874 46.8946 8.0874Z" fill="#0D2234"/>
<path d="M67.3469 21.7441C67.702 23.3895 69.1628 24.4547 71.2128 24.4547C72.6903 24.4547 74.1754 24.1129 75.3863 23.5247C75.7414 23.3498 76.1612 23.6041 76.1612 24.0016V26.5453C76.1612 26.752 76.0317 26.9428 75.838 27.0302C74.5709 27.6105 72.8274 28 70.8901 28C66.5559 28 63.3672 24.9714 63.3672 20.504C63.3672 16.2989 66.4425 13.0398 70.6559 13.0398C74.8694 13.0398 77.4768 16.1558 77.4768 19.8681C77.4768 20.3132 77.4121 20.8617 77.3311 21.3069C77.2831 21.5612 77.0651 21.7441 76.7985 21.7441H67.3469ZM68.0733 18.7791H72.9968C73.3681 18.7791 73.6266 18.4213 73.5052 18.0716C73.1339 16.9905 72.0282 16.2989 70.6241 16.2989C69.2033 16.2989 68.0733 17.0303 67.5806 18.0239C67.4112 18.3736 67.6777 18.7791 68.0733 18.7791Z" fill="#0D2234"/>
<path d="M82.9678 15.1462C83.7346 13.938 84.9212 13.0874 86.6561 13.0477C89.5782 12.9761 91.9515 15.3768 91.9515 18.2543V27.1573C91.9515 27.4514 91.7092 27.6899 91.4108 27.6899H88.4806C88.1817 27.6899 87.9399 27.4514 87.9399 27.1573V19.5342C87.9399 17.9523 86.9713 16.8791 85.4538 16.8791C83.9925 16.8791 83.0563 17.833 82.9678 19.3593V27.1573C82.9678 27.4514 82.7255 27.6899 82.4271 27.6899H79.5212C79.2222 27.6899 78.9805 27.4514 78.9805 27.1573V13.8585C78.9805 13.5644 79.2222 13.3259 79.5212 13.3259H82.4271C82.7255 13.3259 82.9678 13.5644 82.9678 13.8585V15.1462Z" fill="#0D2234"/>
<path d="M95.2081 27.1573V16.6725H93.5212C93.2222 16.6725 92.9805 16.434 92.9805 16.1399V13.8585C92.9805 13.5643 93.2222 13.3259 93.5212 13.3259H95.4423V8.51671C95.4423 8.27029 95.6198 8.05565 95.8615 8L98.5338 8.01591C98.897 7.98408 99.1954 8.19077 99.1954 8.53257V13.3259H101.116C101.415 13.3259 101.657 13.5643 101.657 13.8585V16.1399C101.657 16.434 101.415 16.6725 101.116 16.6725H99.1954V27.1494C99.1954 27.4435 98.9531 27.682 98.6547 27.682H95.7488C95.4503 27.682 95.2081 27.4435 95.2081 27.1573Z" fill="#0D2234"/>
<path d="M112.088 25.8936C111.353 27.1337 110.094 28.0001 108.254 28.0001C105.178 28.0001 103.16 25.6949 103.16 22.6106V13.8586C103.16 13.5645 103.402 13.3261 103.701 13.3261H106.607C106.906 13.3261 107.148 13.5645 107.148 13.8586V21.4819C107.148 23.0955 108.084 24.1607 109.61 24.1607C111.071 24.1607 112.007 23.183 112.096 21.6806V13.8507C112.096 13.5566 112.338 13.3181 112.637 13.3181H115.542C115.841 13.3181 116.083 13.5566 116.083 13.8507V27.1416C116.083 27.4357 115.841 27.6742 115.542 27.6742H112.637C112.338 27.6742 112.096 27.4357 112.096 27.1416V25.8936H112.088Z" fill="#0D2234"/>
<path d="M122.156 14.884C122.858 13.8188 123.972 13.0398 125.61 13.0398C125.788 13.0398 126.03 13.0478 126.256 13.0637C126.538 13.0875 126.748 13.318 126.748 13.5962V16.5453C126.748 16.8951 126.409 17.1495 126.071 17.0541C125.651 16.9349 125.167 16.8713 124.61 16.8713C123.205 16.8713 122.237 17.8252 122.147 19.3514V27.1495C122.147 27.4436 121.906 27.682 121.607 27.682H118.701C118.402 27.682 118.16 27.4436 118.16 27.1495V13.8586C118.16 13.5645 118.402 13.3259 118.701 13.3259H121.607C121.906 13.3259 122.147 13.5645 122.147 13.8586V14.884H122.156Z" fill="#0D2234"/>
<path d="M131.265 21.7441C131.62 23.3895 133.081 24.4547 135.131 24.4547C136.608 24.4547 138.093 24.1129 139.304 23.5247C139.659 23.3498 140.079 23.6041 140.079 24.0016V26.5453C140.079 26.752 139.95 26.9428 139.756 27.0302C138.489 27.6105 136.745 28 134.808 28C130.474 28 127.285 24.9714 127.285 20.504C127.285 16.2989 130.36 13.0398 134.574 13.0398C138.787 13.0398 141.395 16.1558 141.395 19.8681C141.395 20.3132 141.33 20.8617 141.249 21.3069C141.201 21.5612 140.983 21.7441 140.717 21.7441H131.265ZM131.991 18.7791H136.915C137.286 18.7791 137.545 18.4213 137.423 18.0716C137.052 16.9905 135.946 16.2989 134.542 16.2989C133.121 16.2989 131.991 17.0303 131.499 18.0239C131.329 18.3736 131.604 18.7791 131.991 18.7791Z" fill="#0D2234"/>
<path d="M142.906 8.61216C142.906 8.31805 143.148 8.07959 143.447 8.07959H150.284C156.345 8.07959 160.115 12.1416 160.115 17.8808C160.115 23.6201 156.337 27.6821 150.284 27.6821H143.447C143.148 27.6821 142.906 27.4436 142.906 27.1495V8.61216ZM147.063 12.0303V23.7314H150.251C153.851 23.7314 155.813 21.2274 155.813 17.8808C155.813 14.566 153.851 12.0303 150.251 12.0303H147.063Z" fill="#0D2234"/>
<path d="M163.606 8.0874C164.897 8.0874 165.809 9.06516 165.809 10.2814C165.809 11.4976 164.897 12.4515 163.606 12.4515C162.339 12.4515 161.402 11.5056 161.402 10.2814C161.41 9.05721 162.339 8.0874 163.606 8.0874ZM165.058 27.6899H162.153C161.854 27.6899 161.612 27.4515 161.612 27.1573V13.8664C161.612 13.5723 161.854 13.3338 162.153 13.3338H165.058C165.357 13.3338 165.6 13.5723 165.6 13.8664V27.1573C165.6 27.4515 165.357 27.6899 165.058 27.6899Z" fill="#0D2234"/>
<path d="M171.413 13.6836L174.682 22.8092L177.975 13.6757C178.048 13.461 178.258 13.3259 178.484 13.3259H181.535C181.914 13.3259 182.173 13.6995 182.035 14.0413L176.918 27.3402C176.837 27.5468 176.635 27.682 176.417 27.682H172.979C172.753 27.682 172.551 27.5468 172.478 27.3402L167.385 14.0493C167.256 13.6995 167.514 13.3338 167.885 13.3338H170.912C171.13 13.3338 171.332 13.469 171.413 13.6836Z" fill="#0D2234"/>
<path d="M185.87 21.7441C186.225 23.3895 187.686 24.4547 189.736 24.4547C191.213 24.4547 192.698 24.1129 193.909 23.5247C194.264 23.3498 194.684 23.6041 194.684 24.0016V26.5453C194.684 26.752 194.555 26.9428 194.361 27.0302C193.094 27.6105 191.35 28 189.414 28C185.079 28 181.891 24.9714 181.891 20.504C181.891 16.2989 184.966 13.0398 189.179 13.0398C193.393 13.0398 196 16.1558 196 19.8681C196 20.3132 195.935 20.8617 195.855 21.3069C195.806 21.5612 195.588 21.7441 195.322 21.7441H185.87ZM186.604 18.7791H191.528C191.9 18.7791 192.158 18.4213 192.037 18.0716C191.665 16.9905 190.56 16.2989 189.155 16.2989C187.734 16.2989 186.604 17.0303 186.112 18.0239C185.935 18.3736 186.209 18.7791 186.604 18.7791Z" fill="#0D2234"/>
<path d="M26.2161 8.06037H18.5595C16.7302 8.06037 15.5863 10.0073 16.4998 11.566L19.48 16.6513C19.934 17.4261 20.7741 17.9035 21.6834 17.9035H25.69L22.6535 12.7183H26.2161C30.4464 12.8449 31.765 16.0025 31.765 17.9035C31.765 21.7063 28.6079 23.2885 26.048 23.2885H21.8829C18.9693 23.2885 17.4426 21.66 16.7393 20.4703L10.1835 9.28524C9.73927 8.52737 8.91752 8.06037 8.02805 8.06037H4L11.9965 21.7482C15.1168 27.1027 19.0228 27.8326 21.6618 27.9538H26.3636C32.7679 27.706 36.3183 22.927 36.5088 18.4763C36.5088 10.473 29.5667 7.89512 26.2161 8.06037Z" fill="#EE2737"/>
</svg>
